<?xml version="1.0" encoding="UTF-8"?>
<svg version="1.1" xmlns="http://www.w3.org/2000/svg" width="200" height="200">
<path d="M0 0 C3.8557143 1.84547009 6.38577574 3.51436765 9 7 C9.41868657 10.37533742 9.29554794 13.617618 9 17 C9.721875 16.05125 10.44375 15.1025 11.1875 14.125 C13.53940741 11.3159613 15.36583813 9.90854047 19 9 C20.66648648 8.97549285 22.33356477 8.97222608 24 9 C21.86724693 18.08587485 21.86724693 18.08587485 18.6875 21.4375 C15.84777458 23.08850315 12.94295688 24.54272894 10 26 C9.97524446 31.74747403 9.95711362 37.49491689 9.94506836 43.24243164 C9.94004578 45.19686423 9.93322651 47.15129306 9.92456055 49.10571289 C9.91240411 51.91814093 9.90675087 54.73051919 9.90234375 57.54296875 C9.89718246 58.41398727 9.89202118 59.2850058 9.88670349 60.18241882 C9.88632846 64.25625539 9.97178467 68.02589439 11 72 C11.556875 70.865625 12.11375 69.73125 12.6875 68.5625 C14.61818981 65.13016257 14.61818981 65.13016257 17.75 64.0625 C18.4925 64.041875 19.235 64.02125 20 64 C20.12375 63.21625 20.2475 62.4325 20.375 61.625 C21 59 21 59 23 57 C24.94932034 57.06607866 26.89862108 57.13301726 28.84765625 57.20703125 C31.3545163 56.96589952 32.56344751 56.2220693 34.625 54.8125 C35.73875 54.214375 36.8525 53.61625 38 53 C38.886875 53.45375 39.77375 53.9075 40.6875 54.375 C45.28844603 56.63206787 48.42275272 55.46872485 53.29296875 54.34765625 C56 54 56 54 59 56 C59 56.66 59 57.32 59 58 C59.9075 57.938125 60.815 57.87625 61.75 57.8125 C65.44549619 58.0257017 66.15166134 58.863746 69 61 C70.99910061 61.05997302 73.00106248 61.06518275 75 61 C75.96345444 62.87237371 76.92053102 64.7480299 77.875 66.625 C78.40867188 67.66914062 78.94234375 68.71328125 79.4921875 69.7890625 C81 73 81 73 81.99609375 76.12890625 C83.03151818 79.09013955 84.20556485 80.90424471 86.1875 83.3125 C88.74285862 86.45224417 91.21047279 89.62569095 93.625 92.875 C97.06749889 97.28139858 99.99372265 99.31862279 105.3125 101.125 C110.4302512 103.2602207 114.01654158 107.43009941 117 112 C117.125 115 117.125 115 116 118 C115.62817486 119.62105061 115.27488237 121.24643248 114.9375 122.875 C114.62656973 124.25035581 114.31461197 125.6254817 114 127 C113.34 127 112.68 127 112 127 C112.0309375 128.6396875 112.0309375 128.6396875 112.0625 130.3125 C112 134 112 134 111 137 C108.9375 137.9375 108.9375 137.9375 106 138 C104.03431296 136.40287928 102.41646869 134.66355442 100.74609375 132.76171875 C98.91325288 130.91247662 97.42086706 129.93411234 95 129 C92.57061311 129.35232207 92.57061311 129.35232207 90 130 C88.0003559 130.03772913 85.99945939 130.04649906 84 130 C84 129.34 84 128.68 84 128 C83.34 128 82.68 128 82 128 C80.73828125 126.390625 80.73828125 126.390625 79.3125 124.25 C77.19713389 121.29784287 75.48053872 119.42259625 72.25 117.75 C69 116 69 116 67.5625 113.9375 C67 112 67 112 67 109 C63.1079047 109.18398996 62.00228845 109.99767309 59.2109375 112.8359375 C58.25308702 114.00546765 57.30806337 115.18560054 56.375 116.375 C44.14211631 131.5173263 28.83337587 135.18736751 10.1640625 137.46875 C6.96887564 137.79795618 6.96887564 137.79795618 4.5 139.5625 C1.19959064 141.46023538 -1.23964571 141.13429837 -5 141 C-5.76054688 141.21269531 -6.52109375 141.42539063 -7.3046875 141.64453125 C-10.98732968 142.13021304 -13.22946964 141.00267322 -16.625 139.5625 C-21.16690007 137.57029851 -21.16690007 137.57029851 -26 137 C-26.33 137.66 -26.66 138.32 -27 139 C-27.99 139 -28.98 139 -30 139 C-30 138.01 -30 137.02 -30 136 C-31.65 135.67 -33.3 135.34 -35 135 C-35.33 134.01 -35.66 133.02 -36 132 C-36.66 132 -37.32 132 -38 132 C-38.33 132.99 -38.66 133.98 -39 135 C-39.66 135 -40.32 135 -41 135 C-41 134.01 -41 133.02 -41 132 C-40.34 132 -39.68 132 -39 132 C-39 131.34 -39 130.68 -39 130 C-38.34 130 -37.68 130 -37 130 C-37 129.01 -37 128.02 -37 127 C-34.525 126.505 -34.525 126.505 -32 126 C-31.505 124.515 -31.505 124.515 -31 123 C-32.04800781 123.28875 -33.09601562 123.5775 -34.17578125 123.875 C-35.55463366 124.25019793 -36.93354289 124.62518705 -38.3125 125 C-39.00279297 125.19078125 -39.69308594 125.3815625 -40.40429688 125.578125 C-43.35787949 126.37716184 -45.92559219 127 -49 127 C-49.33 128.32 -49.66 129.64 -50 131 C-60.51574365 133.2390937 -69.56405149 133.82325177 -80 131 C-80.33 128.69 -80.66 126.38 -81 124 C-79.700625 124.04125 -78.40125 124.0825 -77.0625 124.125 C-68.28951854 124.10187527 -68.28951854 124.10187527 -60.9375 120 C-60.298125 119.34 -59.65875 118.68 -59 118 C-56.38617837 117.04901383 -53.72941546 116.51313011 -51 116 C-50.113125 115.814375 -49.22625 115.62875 -48.3125 115.4375 C-47.549375 115.293125 -46.78625 115.14875 -46 115 C-44.33333333 114.66666667 -42.66666667 114.33333333 -41 114 C-41 113.34 -41 112.68 -41 112 C-38.91796875 110.52734375 -38.91796875 110.52734375 -36.1875 108.9375 C-35.29417969 108.41027344 -34.40085938 107.88304687 -33.48046875 107.33984375 C-31 106 -31 106 -28 105 C-28 104.34 -28 103.68 -28 103 C-26.3203125 101.4921875 -26.3203125 101.4921875 -24.125 99.875 C-23.40570313 99.33617187 -22.68640625 98.79734375 -21.9453125 98.2421875 C-20 97 -20 97 -18 97 C-16.66741662 91.79733914 -17.49443324 88.69981775 -19.4375 83.75 C-22 77.13079019 -22 77.13079019 -22 75 C-22.58007812 75.09539062 -23.16015625 75.19078125 -23.7578125 75.2890625 C-28.76088419 75.99906937 -32.24022962 76.07477171 -37 74 C-36 71 -36 71 -33.3125 69.25 C-29.6082 67.85215094 -27.76717168 67.94869627 -24 69 C-23.67 69.33 -23.34 69.66 -23 70 C-21.39162503 61.29767148 -21.39162503 61.29767148 -23.9375 53.25 C-26.61937041 49.02402238 -26.39691817 45.86224754 -26 41 C-23.8125 41.0625 -23.8125 41.0625 -21 42 C-19.06842043 44.1717219 -17.51798313 46.52601047 -16 49 C-15.608125 48.2575 -15.21625 47.515 -14.8125 46.75 C-12.38532 43.06738207 -9.89164204 40.66463099 -5.6875 39.1875 C-2.0000924 38.930239 1.34577528 39.44257589 5 40 C5 35.05 5 30.1 5 25 C2.69 24.67 0.38 24.34 -2 24 C-5.02772152 20.97227848 -7.32850986 17.95079489 -9 14 C-8 13 -8 13 -6.07421875 12.98046875 C0.43479711 13.5450806 0.43479711 13.5450806 3.5625 16.0625 C4.036875 16.701875 4.51125 17.34125 5 18 C4.56950512 15.09415955 3.9993724 13.99933437 1.9375 11.8125 C-0.76318106 7.89215653 -0.36233975 4.61983181 0 0 Z M3 48 C2.236875 48.639375 1.47375 49.27875 0.6875 49.9375 C-3.04309216 52.80051259 -5.61961258 53.12182321 -10.1875 53.0625 C-11.08855469 53.05347656 -11.98960938 53.04445313 -12.91796875 53.03515625 C-13.60503906 53.02355469 -14.29210937 53.01195312 -15 53 C-18.94879402 60.55421464 -20.511515 67.47024958 -18.2109375 75.88671875 C-16.46916697 80.75968745 -14.46044114 85.44818388 -12 90 C-4.00765145 88.79399024 -4.00765145 88.79399024 3 85 C5.42453009 81.36320486 5.26637665 78.69701655 5.1875 74.5 C5.17565674 73.43120605 5.17565674 73.43120605 5.16357422 72.34082031 C5.33329755 61.28034127 5.33329755 61.28034127 2 51 C2.66 51 3.32 51 4 51 C3.67 50.01 3.34 49.02 3 48 Z " fill="#3DCF82" transform="translate(82,48)"/>
<path d="M0 0 C2.52328175 0.43504858 3.73159623 0.70922925 5.5 2.625 C5.995 3.07875 6.49 3.5325 7 4 C9.16299211 3.77242269 9.16299211 3.77242269 11 3 C11 4.98 11 6.96 11 9 C13.475 9.495 13.475 9.495 16 10 C15.67 10.763125 15.34 11.52625 15 12.3125 C13.82563314 14.99069135 13.82563314 14.99069135 14 18 C13.67 18.99 13.34 19.98 13 21 C6.375 21.25 6.375 21.25 3 19 C0.67612053 18.60612212 -1.65793749 18.26513915 -4 18 C-4 17.34 -4 16.68 -4 16 C-2.68 15.34 -1.36 14.68 0 14 C-0.66 13.01 -1.32 12.02 -2 11 C-2.36703674 6.7790775 -1.79885972 3.82257691 0 0 Z " fill="#3DCF82" transform="translate(96,11)"/>
</svg>
